<?xml version="1.0" standalone="no"?>
<!DOCTYPE svg PUBLIC "-//W3C//DTD SVG 20010904//EN"
 "http://www.w3.org/TR/2001/REC-SVG-20010904/DTD/svg10.dtd">
<svg version="1.0" xmlns="http://www.w3.org/2000/svg"
 width="512.000000pt" height="512.000000pt" viewBox="0 0 512.000000 512.000000"
 preserveAspectRatio="xMidYMid meet">

<g transform="translate(0.000000,512.000000) scale(0.100000,-0.100000)"
fill="#000000" stroke="none">
<path d="M1636 3423 c-39 -10 -96 -54 -122 -92 -76 -116 -38 -268 85 -334 l49
-27 924 2 923 3 45 30 c24 17 58 52 74 78 25 40 30 59 30 112 0 84 -32 146
-99 195 l-49 35 -921 1 c-506 1 -929 0 -939 -3z"/>
<path d="M1675 2683 c-87 -20 -143 -59 -174 -122 -27 -53 -33 -102 -20 -162 9
-44 21 -63 63 -105 33 -34 65 -56 91 -63 27 -7 240 -11 665 -11 l625 0 50 24
c58 27 108 79 125 131 7 20 10 66 8 101 -5 78 -40 134 -113 179 l-48 30 -626
2 c-344 0 -635 -1 -646 -4z"/>
</g>
</svg>
