<?xml version="1.0" encoding="UTF-8" standalone="no"?>
<svg
   width="24"
   height="24"
   viewBox="0 0 24 24"
   version="1.1"
   id="svg2"
   xml:space="preserve"
   xmlns="http://www.w3.org/2000/svg"
   xmlns:svg="http://www.w3.org/2000/svg"><defs
     id="defs2" /><path
     id="path13"
     style="display:inline;fill:#4e5058;fill-opacity:1;fill-rule:evenodd;stroke:#4e5058;stroke-width:0.3"
     d="M 12,14 C 10.114,14 9.1719375,13.999938 8.5859375,14.585938 7.9999375,15.171938 8,16.114 8,18 8,19.886 7.9999375,20.828062 8.5859375,21.414062 9.1719375,22.000063 10.114,22 12,22 c 1.886,0 2.828063,6.2e-5 3.414062,-0.585938 C 16.000062,20.828063 16,19.886 16,18 16,16.114 16.000062,15.171937 15.414062,14.585938 14.828062,13.999936 13.886,14 12,14 Z m -0.05078,0.734375 c 0.941303,0 1.772755,0.456816 2.330078,1.158203 a 0.52279274,0.52883446 0 0 1 -0.08203,0.746094 0.52486458,0.53093024 0 0 1 -0.736328,-0.08203 c -0.379836,-0.477837 -0.921937,-0.763672 -1.511719,-0.763672 -0.927491,0 -1.762473,0.72793 -1.9765628,1.769531 a 0.52279274,0.52883446 0 0 1 0.3203128,0.882812 L 9.78125,19.011719 a 0.52486458,0.53093024 0 0 1 -0.7734375,0 L 8.4960938,18.445312 A 0.52279274,0.52883446 0 0 1 8.9082031,17.560547 C 9.1388673,15.99081 10.378078,14.734375 11.949219,14.734375 Z m 2.720703,2.259766 a 0.52486458,0.53093024 0 0 1 0.388672,0.171875 l 0.509765,0.566406 a 0.52279274,0.52883446 0 0 1 -0.412109,0.884766 c -0.229974,1.569039 -1.469184,2.826171 -3.041016,2.826171 -0.875695,0 -1.656496,-0.397228 -2.208984,-1.017578 a 0.52279274,0.52883446 0 0 1 0.039063,-0.748047 0.52486458,0.53093024 0 0 1 0.742188,0.03906 c 0.37293,0.419155 0.878007,0.667969 1.427734,0.667969 0.927491,0 1.764426,-0.729185 1.978516,-1.771485 a 0.52279274,0.52883446 0 0 1 -0.322267,-0.880859 l 0.511719,-0.566406 a 0.52486458,0.53093024 0 0 1 0.386719,-0.171875 z" /><path
     fill="#4e5058"
     d="m 6.5,18 v -0.09 c 0,-0.865 0,-1.659 0.087,-2.304 0.095,-0.711 0.32,-1.463 0.938,-2.08 0.618,-0.619 1.37,-0.844 2.08,-0.94 0.646,-0.086 1.44,-0.086 2.306,-0.086 h 0.178 c 0.866,0 1.66,0 2.305,0.087 0.711,0.095 1.463,0.32 2.08,0.938 0.619,0.618 0.844,1.37 0.94,2.08 0.085,0.637 0.086,1.416 0.086,2.267 C 20.073,17.322 22,15.06 22,12.352 22,9.882 20.393,7.78 18.155,7.015 17.837,4.194 15.415,2 12.476,2 9.32,2 6.762,4.528 6.762,7.647 c 0,0.69 0.125,1.35 0.354,1.962 A 4.4,4.4 0 0 0 6.286,9.529 C 3.919,9.53 2,11.426 2,13.765 2,16.104 3.919,18 6.286,18 Z"
     id="path1" /></svg>
