<svg xmlns="http://www.w3.org/2000/svg" viewBox="95 95 741 741">
	<path d="M836 465.5C836 670.121 670.121 836 465.5 836 260.879 836 95 670.121 95 465.5 95 260.879 260.879 95 465.5 95 670.121 95 836 260.879 836 465.5ZM242.322 465.5C242.322 588.758 342.242 688.678 465.5 688.678 588.758 688.678 688.678 588.758 688.678 465.5 688.678 342.242 588.758 242.322 465.5 242.322 342.242 242.322 242.322 342.242 242.322 465.5ZM584.219 465.898C584.219 531.245 531.245 584.219 465.898 584.219 440.35 584.219 416.693 576.122 397.353 562.354L260.937 644.321C451.4 528.542 329.698 492.311 204.538 566.663L348.433 480.202C347.868 475.513 347.577 470.74 347.577 465.898 347.577 400.552 400.552 347.577 465.898 347.577 491.108 347.577 514.477 355.462 533.673 368.899L627.819 312.331C610.898 294.399 591.056 279.324 569.045 267.796 534.72 249.819 496.306 241.088 457.582 242.462 418.858 243.837 381.16 255.27 348.196 275.637 315.232 296.003 288.138 324.6 269.581 358.616 262.856 370.943 257.336 383.828 253.065 397.091 240.595 435.815 209.386 470.244 168.712 470.997 128.037 471.751 93.7099 439.084 101.005 399.061 108.06 360.359 121.262 322.87 140.254 288.06 171.06 231.591 216.039 184.116 270.763 150.306 325.486 116.495 388.07 97.5155 452.356 95.2335 516.641 92.9515 580.413 107.446 637.397 137.29 694.38 167.134 742.612 211.301 777.345 265.444 812.079 319.586 832.118 381.839 835.491 446.076 838.863 510.313 825.452 574.322 796.579 631.804 778.78 667.239 755.483 699.439 727.687 727.279 698.944 756.068 652.543 746.455 629.998 712.591 607.453 678.727 617.982 633.466 642.711 601.164 651.181 590.1 658.628 578.224 664.932 565.676 682.324 531.051 690.402 492.494 688.371 453.799 687.303 433.462 683.462 413.454 677.02 394.312L583.246 450.657C583.889 455.647 584.219 460.734 584.219 465.898ZM260.937 644.321C258.599 645.742 256.214 647.175 253.783 648.619L260.937 644.321ZM470.711 406.73C493.342 393.132 522.712 400.455 536.311 423.086 549.909 445.718 542.587 475.088 519.955 488.687L253.783 648.619 204.538 566.663 470.711 406.73Z" fill="#4E5058 "/>
</svg>