<?xml version="1.0" encoding="UTF-8"?>
<svg version="1.1" xmlns="http://www.w3.org/2000/svg" width="72" height="72">
<path d="M0 0 C1 1 1 1 1.5 4.6875 C1.48526674 7.43279679 1.33478486 8.60418198 -0.45703125 10.72265625 C-1.69318741 11.74020795 -2.9557113 12.72654926 -4.2421875 13.6796875 C-6.26426471 15.19849216 -7.62003861 16.88947081 -9 19 C-8.505 19.61875 -8.01 20.2375 -7.5 20.875 C-6 23 -6 23 -6 25 C-2.6136749 26.50930183 -2.6136749 26.50930183 1 27 C2.72794814 25.77729298 2.72794814 25.77729298 4.5 24.1875 C5.1084375 23.66542969 5.716875 23.14335937 6.34375 22.60546875 C8.21823043 20.90162449 8.21823043 20.90162449 10 18 C12.7427508 17.52885262 15.19558897 17.82194216 18 18 C19.69669132 19.69669132 19.21209414 21.80642509 19.25 24.125 C19.16853712 29.84961851 18.4731382 34.23244059 14.5234375 38.65234375 C8.49918861 44.27772684 2.34790394 46.38240374 -5.82421875 46.203125 C-8 46 -8 46 -10.26977539 45.14013672 C-13.24484717 44.68393815 -13.24484717 44.68393815 -15.81152344 47.25732422 C-16.84195335 48.34288253 -17.85702414 49.4431501 -18.859375 50.5546875 C-19.98675413 51.7384956 -21.11436577 52.92208231 -22.2421875 54.10546875 C-23.99734103 55.98459041 -25.74530822 57.86990603 -27.48730469 59.76123047 C-29.17722816 61.58472014 -30.89159608 63.38247281 -32.609375 65.1796875 C-33.11595642 65.74638153 -33.62253784 66.31307556 -34.14447021 66.89694214 C-37.81148546 70.70933887 -40.69366187 71.71452108 -45.95684814 72.0774231 C-49.21601536 71.95392037 -50.75922665 71.38533938 -53 69 C-53.73239986 63.32390105 -53.19755748 60.77059099 -50 56 C-48.17454126 54.08051725 -46.34513743 52.2514166 -44.421875 50.4375 C-43.33276872 49.38339555 -42.24424383 48.32869013 -41.15625 47.2734375 C-39.44831503 45.62762718 -37.73622329 43.98695939 -36.01367188 42.35644531 C-34.34456813 40.77184114 -32.69481613 39.16906153 -31.046875 37.5625 C-30.52615417 37.079021 -30.00543335 36.59554199 -29.46893311 36.09741211 C-27.84272029 34.56219843 -27.84272029 34.56219843 -26 32 C-26.05219442 29.32588241 -26.05219442 29.32588241 -27 27 C-27.08831108 25.31429732 -27.13021795 23.62550626 -27.125 21.9375 C-27.12886719 20.68259766 -27.12886719 20.68259766 -27.1328125 19.40234375 C-27.00734161 17.13279672 -26.63336779 15.17657343 -26 13 C-25.34 13 -24.68 13 -24 13 C-23.938125 12.46375 -23.87625 11.9275 -23.8125 11.375 C-22.14994025 6.51520996 -19.15368295 3.69220977 -14.875 1.125 C-10.14163667 -0.65524727 -4.97606582 -0.44767374 0 0 Z " fill="#FFFFFF" transform="translate(53,0)"/>
</svg>
