<?xml version="1.0" encoding="UTF-8" standalone="no"?>
<svg
   width="20.771803"
   height="20.087938"
   viewBox="0 0 20.771803 20.087938"
   version="1.1"
   id="svg2"
   xml:space="preserve"
   xmlns="http://www.w3.org/2000/svg"
   xmlns:svg="http://www.w3.org/2000/svg"><defs
     id="defs2" /><path
     id="path1"
     style="display:inline;opacity:1;fill:#4e5058;fill-opacity:1"
     d="m 15.522949,4.8725863e-5 c -2.121,0 -3.182797,-7.96900003e-4 -3.841797,0.658203104137 -0.659,0.65900007 -0.658203,1.72079697 -0.658203,3.84179697 0,2.121 -7.97e-4,3.1827967 0.658203,3.841797 0.659,0.659 1.720797,0.658203 3.841797,0.658203 2.121,0 3.182797,7.97e-4 3.841797,-0.658203 0.659,-0.6590003 0.658203,-1.720797 0.658203,-3.841797 0,-2.121 7.97e-4,-3.1827969 -0.658203,-3.84179697 C 18.705746,-7.4817414e-4 17.643949,4.8725863e-5 15.522949,4.8725863e-5 Z M 4.7944333,0.00200183 a 4.634,4.634 0 0 0 -0.6210938,0.0234375 4.634,4.634 0 0 0 -4.15039063,4.60937507 4.634,4.634 0 0 0 9.26757803,0 A 4.634,4.634 0 0 0 4.7944333,0.00200183 Z M 15.92334,10.02544 c -0.559572,0 -1.067127,0.313052 -2.080079,0.939453 l -0.671874,0.414062 c -1.115267,0.689293 -1.673217,1.036484 -1.935547,1.603516 -0.261845,0.567032 -0.168633,1.229877 0.01563,2.55664 l 0.134765,0.97461 c 0.236145,1.704617 0.354073,2.557234 0.923828,3.066406 0.569758,0.509171 1.404728,0.507813 3.076172,0.507813 h 1.072266 c 1.671443,0 2.50837,0.0014 3.078125,-0.507813 0.569755,-0.509172 0.687683,-1.361789 0.923828,-3.066406 l 0.134766,-0.97461 c 0.184261,-1.326764 0.275997,-1.989608 0.01367,-2.55664 -0.26233,-0.567032 -0.819797,-0.914223 -1.935547,-1.603516 L 18.001465,10.964893 C 16.988998,10.338492 16.482913,10.02544 15.92334,10.02544 Z M 4.7006833,10.960987 c -1.0863858,0 -1.770846,1.29865 -3.1425782,3.898437 l -0.171875,0.324219 c -1.13997613,2.160209 -1.71053483,3.239565 -1.19531243,4.029297 0.5152221,0.789733 1.79099773,0.789062 4.33984373,0.789062 h 0.3417969 c 2.5488458,0 3.8226696,6.71e-4 4.3378906,-0.789062 0.515223,-0.789732 -0.05339,-1.869088 -1.1933594,-4.029297 L 7.8452145,14.859424 C 6.4734825,12.259637 5.7870689,10.960987 4.7006833,10.960987 Z" /></svg>
