<?xml version="1.0" encoding="UTF-8" standalone="no"?>
<svg
   width="72"
   height="72"
   viewBox="0 0 24 24"
   version="1.1"
   id="svg2"
   xml:space="preserve"
   xmlns="http://www.w3.org/2000/svg"
   xmlns:svg="http://www.w3.org/2000/svg"><defs
     id="defs2" /><path
     id="path1"
     style="fill:#4f5159;fill-opacity:1"
     d="m 15.860026,2.0136719 a 6.5,6.5 0 0 0 -5.486328,2.4934896 9.5,9.5 0 0 1 5.01888,1.6868489 c 0.0065,-0.013231 0.01762,-0.026979 0.0345,-0.039713 0.01213,-0.00915 0.02286,-0.019617 0.03451,-0.029297 0.0017,0.00122 0.0032,-0.002 0.0033,-0.0026 8.13e-4,-0.010099 -7.1e-4,-0.020488 0,-0.030599 2e-4,-0.025238 5.4e-4,-0.050293 0.0013,-0.075521 0.0011,-0.030465 0.0028,-0.060805 0.0059,-0.091146 0.0032,-0.03333 0.0076,-0.066745 0.0085,-0.1002604 0.0026,-0.038147 0.0057,-0.076455 0.0085,-0.1145833 0.003,-0.042222 0.0049,-0.083949 0.0039,-0.1263021 1.37e-4,-0.041966 6.28e-4,-0.08434 0.0013,-0.1263021 7e-4,-0.032654 0.0017,-0.065032 0.0033,-0.097656 0.0013,-0.032614 0.0015,-0.065017 0.0013,-0.097656 V 5.1425781 5.0325521 c 10e-7,-0.036608 -3e-6,-0.073417 0,-0.1100261 5e-6,-0.045251 -1.8e-5,-0.090166 0,-0.1354166 3.3e-5,-0.071034 -1.24e-4,-0.1425077 0,-0.2135417 2e-4,-0.077706 2.38e-4,-0.1553719 0.0013,-0.2330729 0.0011,-0.064982 0.0031,-0.1297875 0.0072,-0.1946615 0.0057,-0.088135 0.0127,-0.1763148 0.02604,-0.2636718 0.0064,-0.04122 0.01057,-0.099572 0.04362,-0.1302084 0.02207,-0.020454 0.04298,-0.020331 0.06836,-0.020182 0.02444,-1.086e-4 0.04849,-6.7e-6 0.07292,-6.51e-4 0.01046,-3.266e-4 0.02081,-0.00125 0.03125,-0.00195 -1.7e-5,-0.014325 7e-5,-0.028643 0,-0.042969 -1.1e-4,-0.017872 -7.97e-4,-0.03552 -0.0013,-0.053385 -7e-4,-0.019667 -0.0014,-0.039707 -0.0039,-0.059245 -0.0043,-0.034526 -0.01078,-0.068754 -0.01758,-0.1028646 -0.01,-0.051068 -0.01787,-0.1027049 -0.01367,-0.1549479 0.0049,-0.046304 0.01185,-0.093896 0.04362,-0.1302083 0.0055,-0.00486 0.01093,-0.010093 0.01693,-0.014323 0.02022,-0.014338 0.0431,-0.018102 0.06706,-0.020182 0.02368,-0.00312 0.04764,-0.00708 0.07161,-0.00586 0.02,6.56e-5 0.0399,2.495e-4 0.0599,6.51e-4 0.0186,4.5e-4 0.03685,0.00112 0.05534,0.00326 0.02083,0.0027 0.04175,0.00687 0.06185,0.013021 -2e-4,-0.00326 -3.8e-4,-0.0065 -6.51e-4,-0.00977 -0.0015,-0.017898 -0.0036,-0.035774 -0.0072,-0.053386 -0.0039,-0.019221 -0.0058,-0.038638 -0.0091,-0.057943 -0.0055,-0.024045 -0.01287,-0.048 -0.01237,-0.072917 -5e-5,-0.031346 0.0024,-0.063015 0.01758,-0.091146 0.0037,-0.00533 0.0074,-0.010695 0.01172,-0.015625 0.02274,-0.026185 0.05463,-0.036946 0.08854,-0.035156 0.01744,6e-7 0.03529,-4e-6 0.05273,0 0.01909,5.1e-6 0.0382,-2.52e-5 0.05729,0 0.02086,3.34e-5 0.04164,-1.668e-4 0.0625,0 0.01865,2e-4 0.03736,9.989e-4 0.05599,0.00195 0.02213,0.00129 0.04388,0.0034 0.06575,0.00716 0.02201,0.00399 0.04387,0.00839 0.06575,0.013021 0.0028,5.966e-4 0.006,9.872e-4 0.0091,0.0013 -2.3e-4,-0.020454 -1.76e-4,-0.040746 -6.51e-4,-0.061198 -6e-4,-0.034596 -0.0017,-0.069602 -0.0033,-0.1041667 -0.0016,-0.030749 -0.0039,-0.061073 -0.0059,-0.091797 -0.0029,-0.038026 -0.0081,-0.075908 -0.01107,-0.1139323 -0.0022,-0.051155 -0.0053,-0.1024538 -0.0065,-0.1536458 -0.0013,-0.054333 -0.0015,-0.1084124 -0.0013,-0.1627604 v -0.061849 a 6.5,6.5 0 0 0 -0.658203,-0.086588 z m 0.299479,0.9270833 c -0.0012,5.999e-4 0.0026,8.131e-4 0.0039,6.51e-4 5.63e-4,-6.95e-5 0.0013,-5.236e-4 0.002,-6.51e-4 -0.002,-1.534e-4 -0.0041,-8.678e-4 -0.0059,0 z m 0.167969,1.6848958 c 0.0028,0.00201 0.0066,0.00508 0.0091,0.00651 0.0012,6.637e-4 0.0042,0.00228 0.0033,0.0013 -0.0037,-0.00386 -0.0076,-0.00617 -0.01237,-0.00781 z M 15.61263,5.2376302 v 0.00195 c 2.84e-4,-3.537e-4 3.65e-4,-9.766e-4 6.51e-4,-0.0013 z m 5.842448,2.297526 c -4.05e-4,0.00102 -2.33e-4,0.00155 -6.51e-4,0.0026 0.0018,0.00269 -0.0018,0.011065 0.0026,0.013021 -2.84e-4,-0.00527 -0.0016,-0.010364 -0.002,-0.015625 z m 0.541016,1.1816407 c -0.006,4.156e-4 -0.0122,5.282e-4 -0.01823,0.0013 0.003,3e-7 0.0061,-1.1e-6 0.0091,0 h 0.0091 a 6.5,6.5 0 0 0 0,-6.511e-4 6.5,6.5 0 0 0 0,-6.51e-4 z m -2.292969,0.080729 c -0.03577,1.67e-5 -0.07165,5.482e-4 -0.107422,6.511e-4 -0.0294,1.044e-4 -0.05914,1.297e-4 -0.08854,6.51e-4 -0.02915,5.8e-4 -0.05812,0.00117 -0.08724,0.0026 -0.03059,0.00146 -0.06116,0.00255 -0.0918,0.00195 h -0.08854 c -0.03514,8e-7 -0.07032,-4.1e-6 -0.105468,0 -0.04793,6.4e-6 -0.09595,-3e-5 -0.143881,0 -0.0526,3.87e-5 -0.104952,4.387e-4 -0.157552,6.511e-4 -0.04954,2.3e-4 -0.09956,1.3e-4 -0.149088,0.0013 -0.04736,0.00124 -0.09419,0.0023 -0.141276,0.00781 -0.02545,0.00385 -0.05042,0.010192 -0.07422,0.020182 -0.0193,0.00806 -0.03881,0.015669 -0.05794,0.024089 -0.03838,0.018473 -0.07771,0.035088 -0.11914,0.045573 -0.07959,0.019402 -0.160488,0.028544 -0.242188,0.033854 -0.0082,3.508e-4 -0.01649,3.607e-4 -0.02474,6.51e-4 A 9.5,9.5 0 0 1 19.5,14 c 0,0.11 -0.0019,0.220078 -0.0059,0.330078 l 0.332682,0.08789 A 1.3,1.3 0 0 0 21.41923,12.826822 L 21.290975,12.35091 c -0.103,-0.385 -0.04,-0.790994 0.125,-1.152994 a 6.5,6.5 0 0 0 0.576172,-2.3658858 h -0.0052 c -0.05603,-1.95e-5 -0.11259,9.05e-5 -0.16862,0 -0.05758,-1.057e-4 -0.114956,-8.294e-4 -0.172526,-0.0013 -0.05517,-5.4e-4 -0.110214,-9.64e-4 -0.165364,-0.0026 -0.04609,-0.00136 -0.09255,-0.00253 -0.138672,-0.00195 h -0.08984 -0.08333 -0.119792 c -0.04356,-1.1e-6 -0.08664,6.1e-6 -0.130208,0 -0.04343,-7.7e-6 -0.08742,4.5e-5 -0.13086,0 -0.0437,-5.17e-5 -0.08716,-3.718e-4 -0.130859,-6.511e-4 -0.04179,-3.3e-4 -0.08388,-5.02e-4 -0.125651,-0.00195 -0.04133,-0.00176 -0.08266,-0.00439 -0.123698,-0.00977 -0.04174,-0.00519 -0.08303,-0.010512 -0.125,-0.013672 -0.03995,-0.00275 -0.07976,-0.00288 -0.119792,-0.0026 h -0.113281 -0.116536 c -0.03898,4e-7 -0.07821,-2.4e-6 -0.117188,0 -0.03765,2.9e-6 -0.07498,-1.51e-5 -0.11263,0 z" /><path
     fill="#4e5058"
     fill-rule="evenodd"
     d="M 18,14 A 8,8 0 0 1 6.55,21.22 1.67,1.67 0 0 0 5.4,21.09 L 4.173,21.419 A 1.3,1.3 0 0 1 2.582,19.827 L 2.91,18.6 A 1.67,1.67 0 0 0 2.78,17.45 8,8 0 1 1 18,14 M 6.5,15 a 1,1 0 1 0 0,-2 1,1 0 0 0 0,2 m 3.5,0 a 1,1 0 1 0 0,-2 1,1 0 0 0 0,2 m 3.5,0 a 1,1 0 1 0 0,-2 1,1 0 0 0 0,2"
     clip-rule="evenodd"
     id="path2" /></svg>
