<svg fill="none" height="24" viewBox="0 0 24 24" width="24" xmlns="http://www.w3.org/2000/svg"><path d="m13.9551 5.18341 4.9778 4.42474c.9306.82715 1.3959 1.24075 1.5673 1.72915.1506.4289.1506.8962 0 1.3251-.1714.4884-.6367.902-1.5673 1.7292l-4.9778 4.4247c-.4223.3754-.6335.5631-.8128.5698-.1558.0058-.3054-.0614-.4046-.1817-.1141-.1385-.1141-.421-.1141-.986v-2.79c-2.4281 0-4.99267.7799-6.86529 2.1642-.97489.7207-1.46236 1.0811-1.64802 1.0669-.18097-.0139-.29583-.0845-.38973-.2399-.09633-.1593-.01124-.6572.15893-1.653 1.10497-6.4662 5.55494-8.19531 8.74411-8.19531v-2.78995c0-.56502 0-.84753.1141-.98603.0992-.12033.2488-.18751.4046-.18168.1793.00671.3905.1944.8128.56978z" fill="#1c274c"/></svg>