<?xml version="1.0" encoding="UTF-8" standalone="no"?>
<svg
   viewBox="2 2 130.1823 115.04199"
   version="1.1"
   id="svg1"
   xml:space="preserve"
   width="130.1823"
   height="115.04199"
   xmlns="http://www.w3.org/2000/svg"
   xmlns:svg="http://www.w3.org/2000/svg"><defs
     id="defs1" /><path
     fill="#4e5058"
     fill-rule="evenodd"
     d="m -250.85497,-1.6816952 -0.16337,-0.1361296 a 1.3798521,1.6258865 0 0 0 -0.79732,-0.2987184 h -0.19916 c -0.13181,0 -0.26458,0.00958 -0.38858,0.061355 -0.77551,0.3244105 -1.3089,1.5089303 -1.27017,4.1962445 0.008,0.541451 0.1152,1.1396545 0.52981,1.373184 a 1.0413979,1.2270841 0 0 0 0.45333,0.1211745 0.89169692,1.0506908 0 0 0 0.49792,-0.1675735 c 0.13343,-0.1027683 0.25058,-0.2362138 0.36774,-0.3696592 0.1445,-0.1648894 0.28899,-0.3297789 0.46342,-0.4363819 a 1.3342909,1.5722015 0 0 1 0.61508,-0.1767771 h 0.65055 c 0.21413,0 0.42502,0.060588 0.61507,0.1763934 0.17444,0.1069872 0.31893,0.2718758 0.46375,0.4367652 0.11716,0.1334454 0.23431,0.2668908 0.36709,0.3696592 0.12692,0.098167 0.29127,0.1675735 0.49825,0.1675735 a 1.0413979,1.2270841 0 0 0 0.45333,-0.1211749 c 0.41461,-0.2335294 0.522,-0.8321165 0.52981,-1.3731839 0.0387,-2.6873143 -0.49466,-3.8718341 -1.27018,-4.1958611 -0.12432,-0.052151 -0.25775,-0.061737 -0.3889,-0.061737 h -0.19916 a 1.3798521,1.6258865 0 0 0 -0.79732,0.2991017 l -0.16337,0.1357462 a 0.75175908,0.88580141 0 0 1 -0.86762,0 m 1.97963,1.0990074 a 0.24407761,0.28759786 0 1 1 0,0.5751957 0.24407761,0.28759786 0 0 1 0,-0.5751957 m -3.01029,0.095866 a 0.24407761,0.28759786 0 0 1 0.24408,0.2875978 v 0.2875979 h 0.24408 a 0.24407761,0.28759786 0 0 1 0,0.5751957 h -0.24408 v 0.2875976 a 0.244078,0.28759832 0 0 1 -0.48815,0 V 0.6635694 h -0.24408 a 0.24407765,0.2875979 0 0 1 0,-0.5751958 h 0.24408 v -0.2875979 a 0.24407761,0.28759786 0 0 1 0.24407,-0.2875978 m 3.74253,0.7669277 a 0.24408,0.28760067 0 1 1 -0.48816,0 0.24408,0.28760067 0 0 1 0.48816,0 m -1.22039,0.2875978 a 0.24407761,0.28759786 0 1 0 0,-0.5751957 0.24407761,0.28759786 0 0 0 0,0.5751957 m 0.73223,0.2875979 a 0.24407761,0.28759786 0 1 0 -0.48815,0 0.24407761,0.28759786 0 0 0 0.48815,0"
     clip-rule="evenodd"
     id="path1-8"
     style="stroke-width:0.353262" /></svg>
