<?xml version="1.0" encoding="UTF-8" standalone="no"?>
<svg
   viewBox="2 2 130.18208 109.3598"
   version="1.1"
   id="svg1"
   xml:space="preserve"
   width="130.18208"
   height="109.3598"
   xmlns="http://www.w3.org/2000/svg"
   xmlns:svg="http://www.w3.org/2000/svg"><defs
     id="defs1" /><path
     fill="#4e5058"
     fill-rule="evenodd"
     d="m -251.81398,0.5966037 -0.16337,-0.1294059 a 1.3798521,1.5455801 0 0 0 -0.79732,-0.283964 h -0.19916 c -0.13181,0 -0.26458,0.00911 -0.38858,0.058325 -0.77551,0.3083871 -1.3089,1.434401 -1.27017,3.9889823 0.008,0.5147074 0.1152,1.0833638 0.52981,1.3053592 a 1.0413979,1.1664755 0 0 0 0.45333,0.1151889 0.89169692,0.99879473 0 0 0 0.49792,-0.1592961 c 0.13343,-0.097692 0.25058,-0.2245469 0.36774,-0.3514007 0.1445,-0.1567458 0.28899,-0.3134905 0.46342,-0.4148281 a 1.3342909,1.4945468 0 0 1 0.61508,-0.1680456 h 0.65055 c 0.21413,0 0.42502,0.057597 0.61507,0.1676805 0.17444,0.1017033 0.31893,0.2584474 0.46375,0.4151922 0.11716,0.1268548 0.23431,0.2537087 0.36709,0.3514017 0.12692,0.093321 0.29127,0.1592961 0.49825,0.1592961 a 1.0413979,1.1664755 0 0 0 0.45333,-0.1151898 c 0.41461,-0.2219945 0.522,-0.7910159 0.52981,-1.3053593 0.0387,-2.5545813 -0.49466,-3.680595 -1.27018,-3.9886175 -0.12432,-0.049575 -0.25775,-0.058688 -0.3889,-0.058688 h -0.19916 a 1.3798521,1.5455801 0 0 0 -0.79732,0.2843283 l -0.16337,0.1290414 a 0.75175908,0.84204961 0 0 1 -0.86762,0 m 1.97963,1.0447246 a 0.24407773,0.27339287 0 1 1 0,0.5467857 0.24407773,0.27339287 0 0 1 0,-0.5467857 m -3.01029,0.091135 a 0.24407761,0.27339273 0 0 1 0.24408,0.2733928 v 0.2733929 h 0.24408 a 0.24407773,0.27339287 0 0 1 0,0.5467857 h -0.24408 v 0.273392 a 0.244078,0.27339317 0 0 1 -0.48815,0 V 2.826034 h -0.24408 a 0.24407773,0.27339287 0 0 1 0,-0.5467857 h 0.24408 V 2.0058554 a 0.24407761,0.27339273 0 0 1 0.24407,-0.2733919 m 3.74253,0.7290466 a 0.24408,0.2733954 0 1 1 -0.48816,0 0.24408,0.2733954 0 0 1 0.48816,0 m -1.22039,0.2733929 a 0.24407773,0.27339287 0 1 0 0,-0.5467857 0.24407773,0.27339287 0 0 0 0,0.5467857 m 0.73223,0.2733928 a 0.24407761,0.27339273 0 1 0 -0.48815,0 0.24407761,0.27339273 0 0 0 0.48815,0"
     clip-rule="evenodd"
     id="path1-8"
     style="stroke-width:0.344427" /></svg>
