<?xml version="1.0" encoding="UTF-8" standalone="no"?>
<svg
   width="72"
   height="72"
   viewBox="0 0 24 24"
   version="1.1"
   id="svg1"
   xml:space="preserve"
   xmlns="http://www.w3.org/2000/svg"
   xmlns:svg="http://www.w3.org/2000/svg"><defs
     id="defs1" /><path
     fill="#4e5058"
     fill-rule="evenodd"
     d="m 17.176497,3.4095885 v -0.759339 a 2.5500001,2.4941792 0 0 1 5.099998,0 v 0.759339 c 0.421223,0.030669 0.695112,0.1082659 0.895711,0.3044745 0.332068,0.3244281 0.332068,0.8472819 0.332068,1.8922506 0,1.0449688 0,1.5678226 -0.332068,1.8922507 -0.331688,0.3247976 -0.866243,0.3247976 -1.934599,0.3247976 h -3.022222 c -1.068356,0 -1.602912,0 -1.9346,-0.3247976 -0.332067,-0.3244281 -0.332067,-0.8472819 -0.332067,-1.8922507 0,-1.0449687 0,-1.5678225 0.332067,-1.8922506 0.200223,-0.1962086 0.474489,-0.2738054 0.895712,-0.3044745 m 0.566666,-0.759339 a 1.9833333,1.9399172 0 0 1 3.966666,0 v 0.7404941 q -0.216844,-0.00185 -0.472222,-0.00148 h -3.022222 q -0.255755,-3.695e-4 -0.472222,0.00148 z m 2.738889,2.9560641 a 0.7555565,0.73901697 0 1 1 -1.511113,0 0.7555565,0.73901697 0 0 1 1.511113,0"
     clip-rule="evenodd"
     id="path1"
     style="stroke-width:0.37362" /></svg>
