<?xml version="1.0" encoding="UTF-8"?>
<svg xmlns="http://www.w3.org/2000/svg" xmlns:xlink="http://www.w3.org/1999/xlink" width="24px" height="24px" viewBox="0 0 24 24" version="1.1">
<g id="surface1">
<path style=" stroke:none;fill-rule:nonzero;fill:rgb(0%,0%,0%);fill-opacity:1;" d="M 3.941406 17.304688 C 4.753906 17.441406 5.566406 17.578125 6.378906 17.71875 C 7.058594 17.832031 7.058594 17.832031 7.753906 17.949219 C 8.914062 18.183594 8.914062 18.183594 9.679688 18.621094 C 9.792969 21.988281 9.792969 21.988281 8.914062 23.441406 C 7.761719 24.105469 6.746094 23.957031 5.472656 23.882812 C 4.324219 23.003906 4.324219 23.003906 3.941406 21.6875 C 3.914062 20.933594 3.90625 20.171875 3.917969 19.414062 C 3.921875 19.019531 3.921875 18.625 3.925781 18.21875 C 3.929688 17.917969 3.9375 17.617188 3.941406 17.304688 Z M 21.160156 0.210938 C 23.003906 1.914062 23.441406 4.660156 23.839844 7.226562 C 24.175781 11.234375 23.917969 15.367188 21.804688 18.703125 C 20.777344 19.496094 20.777344 19.496094 19.628906 19.800781 C 18.339844 19.460938 17.8125 18.914062 16.980469 17.742188 C 15.800781 15.242188 15.664062 12.683594 15.683594 9.910156 C 15.683594 9.5625 15.6875 9.214844 15.6875 8.855469 C 15.738281 5.804688 16.101562 3.390625 17.621094 0.84375 C 18.882812 -0.0820312 19.695312 -0.0585938 21.160156 0.210938 Z M 15.421875 0.648438 C 17.332031 0.210938 16.566406 0.648438 15.253906 3.527344 C 13.796875 8.21875 14.320312 14.039062 15.804688 18.621094 C 13.046875 18.476562 10.355469 17.976562 7.648438 17.386719 C 7.320312 17.320312 6.988281 17.253906 6.652344 17.183594 C 4.410156 16.679688 2.542969 16.011719 1.085938 13.847656 C 0.257812 11.859375 -0.140625 10.347656 0.113281 8.101562 C 0.78125 6.046875 1.585938 4.933594 3.175781 3.71875 C 4.609375 2.972656 5.988281 2.597656 7.535156 2.277344 C 7.996094 2.179688 8.457031 2.085938 8.929688 1.984375 C 9.644531 1.839844 9.644531 1.839844 10.375 1.691406 C 10.859375 1.589844 11.34375 1.492188 11.839844 1.386719 C 13.035156 1.140625 14.226562 0.894531 15.421875 0.648438 Z M 15.421875 0.648438 "/>
</g>
</svg>
