<?xml version="1.0" encoding="UTF-8" standalone="no"?>
<svg
   width="1000"
   height="1500"
   viewBox="0 0 1000 1500"
   version="1.1"
   id="svg1"
   xmlns="http://www.w3.org/2000/svg"
   xmlns:svg="http://www.w3.org/2000/svg">
  <defs
     id="defs1" />
  <path
     fill="#4e5058"
     fill-rule="evenodd"
     d="m 503.25,0 h -6.5 C 391.75,0 308.625,0 243.5,10.65 176.5,21.675 122.25,44.85 79.5,97.05 36.75,149.25 17.75,215.55 8.75,297.3 0,376.8 0,478.35 0,606.525 v 286.95 c 0,128.25 0,229.8 8.75,309.225 9,81.75 28,148.05 70.75,200.25 42.75,52.2 97,75.375 164,86.4 65.0625,10.65 148.25,10.65 253.25,10.65 h 6.5 c 105,0 188.125,0 253.25,-10.65 67,-11.025 121.25,-34.2 164,-86.4 42.75,-52.2 61.75,-118.5 70.75,-200.25 8.75,-79.5 8.75,-181.05 8.75,-309.225 v -286.95 c 0,-128.25 0,-229.8 -8.75,-309.225 -9,-81.75 -28,-148.05 -70.75,-200.25 -42.75,-52.2 -97,-75.375 -164,-86.4 C 691.43753,0 608.25,0 503.25,0 m -217.5,1238.4 a 43.125,51.75 0 0 1 42.8125,-52.35 h 342.87497 c 23.68753,0 42.875,23.4 42.875,52.35 a 43.125,51.75 0 0 1 -42.875,52.275 H 328.5625 a 43.125,51.75 0 0 1 -42.875,-52.275"
     clip-rule="evenodd"
     id="path1"
     style="stroke-width:68.4653" />
</svg>
