<?xml version="1.0" encoding="UTF-8" standalone="no"?>
<svg
   fill="none"
   height="14.773167"
   viewBox="0 0 16.932978 14.773167"
   width="16.932978"
   version="1.1"
   id="svg1"
   xmlns="http://www.w3.org/2000/svg"
   xmlns:svg="http://www.w3.org/2000/svg">
  <defs
     id="defs1" />
  <path
     d="M 6.6580497,0.57013077 1.6802502,4.9948708 c -0.93060007,0.82715 -1.39590007,1.24075 -1.56730007,1.72915 -0.1506,0.4289 -0.1506,0.8962 0,1.3251 0.1714,0.4884 0.6367,0.902 1.56730007,1.7292 l 4.9777995,4.4247002 c 0.4223,0.3754 0.6335,0.5631 0.8128,0.5698 0.1558,0.0058 0.3054,-0.0614 0.4046,-0.1817 0.1141,-0.1385 0.1141,-0.421 0.1141,-0.986 v -2.79 c 2.4281003,0 4.9926703,0.7799 6.8652903,2.1642 0.97489,0.7207 1.46236,1.0811 1.64802,1.0669 0.18097,-0.0139 0.29583,-0.0845 0.38973,-0.2399 0.09633,-0.1593 0.01124,-0.6572 -0.15893,-1.653 C 15.62869,5.6871208 11.17872,3.9580108 7.9895497,3.9580108 v -2.78995 c 0,-0.56502003 0,-0.84753003 -0.1141,-0.98603003 -0.0992,-0.12033 -0.2488,-0.18751 -0.4046,-0.18168000538 -0.1793,0.006710005 -0.3905,0.19440000538 -0.8128,0.56978000538 z"
     fill="#1c274c"
     id="path1"
     style="fill:#4e5058;fill-opacity:1" />
</svg>
