<?xml version="1.0" encoding="UTF-8" standalone="no"?>
<svg
   width="72"
   height="72"
   viewBox="0 0 24 24"
   version="1.1"
   id="svg1"
   xml:space="preserve"
   xmlns="http://www.w3.org/2000/svg"
   xmlns:svg="http://www.w3.org/2000/svg"><defs
     id="defs1" /><path
     id="path1"
     style="display:none"
     d="m 8,11.75 a 0.75,0.75 0 0 0 0,1.5 h 5.5 a 0.75,0.75 0 0 0 0,-1.5 z" /><path
     id="path7"
     style="display:inline"
     d="M 2.6074219,4.6178385 C 2.6478312,4.5391996 2.6910155,4.4629846 2.7369792,4.3880208 A 5,5 0 0 1 3.125651,3.8535156 5,5 0 0 0 2.7369792,4.3867188 c -0.046063,0.075188 -0.089073,0.1522411 -0.1295573,0.2311197 z" /><path
     id="path6"
     style="display:inline"
     d="M 3.4648438,17.535156 A 5,5 0 0 1 2.3808594,15.91276 c -0.1905,-0.459 -0.2857084,-0.979833 -0.3333334,-1.677083 0.0475,0.69725 0.1426823,1.218083 0.3326823,1.677083 a 5,5 0 0 0 1.0846355,1.622396 z" /><path
     id="path5"
     style="display:none"
     d="M 15.896484,8.25 H 8 A 0.75,0.75 0 0 0 7.25,9 0.75,0.75 0 0 0 8,9.75 h 8 A 0.75,0.75 0 0 0 16.712891,8.8613281 4.5,4.5 0 0 1 15.896484,8.25 Z" /><path
     id="path4"
     style="display:inline"
     d="M 21.994141,9.422526 C 21.995557,9.7811063 22,10.093212 22,10.5 L 21.9987,9.4518229 c -2.4e-5,-0.010353 -0.0039,-0.019165 -0.0046,-0.029297 z" /><path
     id="path3"
     style="display:inline"
     d="m 13.5,2 c 0.405191,0 0.715591,0.00446 1.072917,0.00586 -0.0086,-4.331e-4 -0.01597,-0.00391 -0.02474,-0.00391 C 14.218844,1.9992865 13.869333,1.9986667 13.5,2 Z" /><path
     id="path2"
     style="display:inline"
     d="M 10.5,2 C 7.227,2 5.5900208,1.9999792 4.3880208,2.7369792 A 5,5 0 0 0 3.125651,3.8535156 5,5 0 0 0 2.7369792,4.3880208 C 2.6910155,4.4629846 2.6478312,4.5391996 2.6074219,4.6178385 2.0001526,5.8010185 2,7.4325 2,10.5 v 1 c 0,1.165 2.6e-5,2.038427 0.047526,2.735677 0.047625,0.69725 0.1428334,1.218083 0.3333334,1.677083 a 5,5 0 0 0 1.0839844,1.622396 5,5 0 0 0 1.6223958,1.083985 c 0.66,0.274 1.4464739,0.349744 2.7024739,0.371744 0.85,0.015 1.2752813,0.0224 1.6132813,0.219401 0.08425,0.049 0.1606406,0.107735 0.234375,0.179688 0.036805,0.03591 0.073271,0.07507 0.109375,0.117838 0.1810059,0.214346 0.3618492,0.519818 0.6243492,0.964193 l 0.541666,0.916016 c 0.03019,0.051 0.06347,0.0986 0.09896,0.143229 0.03555,0.04462 0.0738,0.0861 0.113932,0.124349 0.561275,0.535113 1.53818,0.446267 1.961589,-0.267578 l 0.541666,-0.916016 c 0.315,-0.5325 0.511729,-0.865937 0.733073,-1.082031 0.07378,-0.07195 0.150526,-0.130688 0.235026,-0.179688 0.338,-0.197 0.763281,-0.204401 1.613281,-0.219401 1.256,-0.021 2.042474,-0.09774 2.702474,-0.371744 a 5,5 0 0 0 2.70638,-2.706381 C 22.000141,14.99476 22,13.83 22,11.5 v -1 C 22,10.093212 21.9956,9.7811063 21.9941,9.422526 21.968847,9.0147803 21.46584,8.787596 21.097005,8.9817708 A 4.5,4.5 0 0 1 16.712891,8.8613281 0.75,0.75 0 0 1 16,9.75 H 8 A 0.75,0.75 0 0 1 7.25,9 0.75,0.75 0 0 1 8,8.25 h 7.896484 A 4.5,4.5 0 0 1 15.016927,2.9016927 C 15.212831,2.5324146 14.984542,2.0265704 14.572917,2.0058594 14.215591,2.004461 13.905191,2 13.5,2 Z M 8,11.75 h 5.5 a 0.75,0.75 0 0 1 0,1.5 H 8 a 0.75,0.75 0 0 1 0,-1.5 z" /></svg>
