<?xml version="1.0" encoding="UTF-8" standalone="no"?>
<svg
   width="60"
   height="60.000023"
   viewBox="0 0 20 20.000008"
   version="1.1"
   id="svg1"
   xmlns="http://www.w3.org/2000/svg"
   xmlns:svg="http://www.w3.org/2000/svg">
  <defs
     id="defs1" />
  <path
     fill="#4e5058"
     fill-rule="evenodd"
     d="M 10,20 C 15.523,20 20,15.523 20,10 20,4.477 15.523,3.7060534e-8 10,3.7060534e-8 4.477,3.7060534e-8 0,4.477 0,10 c 0,1.6 0.376,3.112 1.043,4.453 0.178,0.356 0.237,0.763 0.134,1.148 l -0.595,2.226 a 1.3,1.3 0 0 0 1.591,1.592 L 4.399,18.823 A 1.63,1.63 0 0 1 5.548,18.956 9.96,9.96 0 0 0 10,20 M 6,11.25 a 0.75,0.75 0 0 0 0,1.5 h 5.5 a 0.75,0.75 0 0 0 0,-1.5 z M 5.25,8.5 A 0.75,0.75 0 0 1 6,7.75 h 8 a 0.75,0.75 0 0 1 0,1.5 H 6 A 0.75,0.75 0 0 1 5.25,8.5"
     clip-rule="evenodd"
     id="path1" />
</svg>
