<?xml version="1.0" encoding="UTF-8" standalone="no"?>
<svg
   width="22.200001"
   height="22.200001"
   viewBox="0 0 22.200001 22.200001"
   version="1.1"
   id="svg2"
   xml:space="preserve"
   xmlns="http://www.w3.org/2000/svg"
   xmlns:svg="http://www.w3.org/2000/svg"><defs
     id="defs2" /><path
     fill="#4e5058"
     fill-rule="evenodd"
     d="M 11.1,0.35000003 C 5.163,0.35000003 0.35000003,5.163 0.35000003,11.1 0.35000003,17.037 5.163,21.85 11.1,21.85 17.037,21.85 21.85,17.037 21.85,11.1 21.85,5.163 17.037,0.35000003 11.1,0.35000003 M 1.85,11.1 a 9.25,9.25 0 1 1 18.5,0 9.25,9.25 0 0 1 -18.5,0"
     clip-rule="evenodd"
     stroke-width="0.7"
     stroke="#4e5058"
     id="path2" /><path
     fill="#4e5058"
     d="M 10.687873,6.089361 A 0.88347074,0.75089524 0 1 0 9.946936,4.7267365 C 7.6322421,5.6358203 5.8476312,7.4449772 5.0336601,9.633586 a 0.88349223,0.7509135 0 0 0 1.6844843,0.453541 C 7.3978279,8.2599489 8.8679233,6.8052145 10.687873,6.089361"
     stroke-width="0.760191"
     stroke="#4e5058"
     id="path1" /></svg>
