<svg xmlns="http://www.w3.org/2000/svg" viewBox="2 2 20 20">
	<path d="m 12,2 c -0.172594,0 -0.343226,0.00503 -0.513672,0.013672 -0.170446,0.00864 -0.341677,0.02004 -0.509766,0.037109 -0.168088,0.01707 -0.334477,0.039163 -0.5,0.064453 C 9.979995,2.1911046 9.4950902,2.3031324 9.0253906,2.4492188 8.8688241,2.4979142 8.7156624,2.5513435 8.5625,2.6074219 8.2561752,2.7195787 7.9555142,2.8458959 7.6640625,2.9863281 7.3726108,3.1267603 7.0893565,3.2802333 6.8144531,3.4472656 6.5395497,3.6142979 6.2742579,3.794371 6.0175781,3.9863281 5.7608984,4.1782852 5.5121714,4.3824496 5.2753906,4.5976562 4.9202194,4.9204662 4.58889,5.2682623 4.2832031,5.6386719 4.1813075,5.7621417 4.0823067,5.8892383 3.9863281,6.0175781 3.8903496,6.145918 3.7968833,6.2752026 3.7070312,6.4082031 3.6171792,6.5412036 3.5307818,6.6770014 3.4472656,6.8144531 3.113201,7.3642599 2.8317355,7.9498505 2.6074219,8.5625 2.5513435,8.7156624 2.4979142,8.8688241 2.4492188,9.0253906 2.4005233,9.1819572 2.3555562,9.3402387 2.3144531,9.5 2.2733501,9.6597613 2.2364263,9.8216284 2.203125,9.984375 2.1032212,10.472615 2.0395902,10.97499 2.0136719,11.486328 2.0050324,11.656774 2,11.827406 2,12 c 0,0.517781 0.039364,1.02687 0.1152344,1.523438 0.1011603,0.662089 0.2678739,1.301412 0.4921875,1.914062 0.1121568,0.306325 0.238474,0.606986 0.3789062,0.898438 0.1404322,0.291451 0.2939052,0.574705 0.4609375,0.849609 0.083516,0.137452 0.1699136,0.273249 0.2597656,0.40625 0.089852,0.133 0.1833184,0.262285 0.2792969,0.390625 0.1919571,0.25668 0.3961215,0.505407 0.6113281,0.742187 0.1076034,0.118391 0.2189297,0.232602 0.3320313,0.345703 0.2262031,0.226204 0.4620447,0.442694 0.7089844,0.646485 0.2469397,0.203791 0.5035302,0.396468 0.7695312,0.576172 0.1330005,0.08985 0.2687983,0.176249 0.40625,0.259765 0.1374517,0.08352 0.2762753,0.163264 0.4179688,0.240235 0.1416935,0.07697 0.2859147,0.150487 0.4316406,0.220703 0.1457259,0.07022 0.2938105,0.13792 0.4433594,0.201172 0.1495488,0.06325 0.3019157,0.121656 0.4550781,0.177734 0.1531624,0.05608 0.3063241,0.109508 0.4628906,0.158203 C 9.1819572,21.599477 9.3402387,21.644444 9.5,21.685547 10.298806,21.891062 11.137031,22 12,22 17.523,22 22,17.523 22,12 22,11.827406 21.995,11.656774 21.98633,11.486328 21.97773,11.315882 21.96629,11.144651 21.94922,10.976562 21.437135,5.9338928 17.177813,2 12,2 Z m -1.056641,4.2734375 a 0.8081533,0.89636227 0 0 1 0.220703,1.7148437 C 9.499267,8.8428132 8.1549424,10.578618 7.5332031,12.759766 A 0.80818537,0.89639784 0 0 1 5.9921875,12.21875 C 6.736766,9.6061524 8.3689665,7.446524 10.486328,6.3613281 a 0.8081533,0.89636227 0 0 1 0.457031,-0.087891 z" fill="#4E5058"/>
</svg>