<svg xmlns="http://www.w3.org/2000/svg" viewBox="2 2 20 20">
	<path d="M10.5 2C7.227 2 5.59 2 4.388 2.737A5 5 0 003.1257 3.8535 5 5 0 002.737 4.388C2.691 4.463 2.6478 4.5392 2.6074 4.6178 2.0002 5.801 2 7.4325 2 10.5v1c0 1.165 0 2.0384.0475 2.7357.0476.6973.1428 1.2181.3333 1.6771a5 5 0 001.084 1.6224 5 5 0 001.6224 1.084c.66.274 1.4465.3497 2.7025.3717.85.015 1.2753.0224 1.6133.2194.0843.049.1606.1077.2344.1797.0368.0359.0733.0751.1094.1178.181.2143.3618.5198.6243.9642l.5417.916c.0302.051.0635.0986.099.1432.0355.0446.0738.0861.1139.1243.5613.5351 1.5382.4463 1.9616-.2676l.5417-.916c.315-.5325.5117-.8659.7331-1.082.0738-.072.1505-.1307.235-.1797.338-.197.7633-.2044 1.6133-.2194 1.256-.021 2.0425-.0977 2.7025-.3717a5 5 0 002.7064-2.7064C22.0001 14.9948 22 13.83 22 11.5v-1C22 10.0932 21.9956 9.7811 21.9941 9.4225 21.9688 9.0148 21.4658 8.7876 21.097 8.9818A4.5 4.5 0 0116.7129 8.8613.75.75 0 0116 9.75H8A.75.75 0 017.25 9 .75.75 0 018 8.25h7.8965A4.5 4.5 0 0115.0169 2.9017C15.2128 2.5324 14.9845 2.0266 14.5729 2.0059 14.2156 2.0045 13.9052 2 13.5 2ZM8 11.75h5.5a.75.75 0 010 1.5H8a.75.75 0 010-1.5z" fill="#4E5058 "/>
</svg>