<?xml version="1.0" encoding="UTF-8" standalone="no"?>
<svg
   width="20"
   height="19.999073"
   viewBox="0 0 20 19.999073"
   version="1.1"
   id="svg2"
   xml:space="preserve"
   xmlns="http://www.w3.org/2000/svg"
   xmlns:svg="http://www.w3.org/2000/svg"><defs
     id="defs2" /><path
     id="path1-5"
     d="m 15.636752,11.895299 a 0.75,0.75 0 0 1 0.75,0.75 v 2.25 h 2.25 a 0.75,0.75 0 0 1 0,1.5 h -2.25 v 2.25 a 0.75,0.75 0 0 1 -1.5,0 v -2.25 h -2.25 a 0.75,0.75 0 0 1 0,-1.5 h 2.25 v -2.25 a 0.75,0.75 0 0 1 0.75,-0.75 M 13.17,0 c 1.151,0 2.067,0 2.802,0.07 0.753,0.071 1.39,0.222 1.957,0.57 a 4.34,4.34 0 0 1 1.431,1.43 c 0.348,0.567 0.498,1.204 0.57,1.957 C 20,4.763 20,5.678 20,6.83 v 0.787 c 0,0.82 0,1.472 -0.036,2 -0.037,0.541 -0.114,1.006 -0.294,1.44 a 4.34,4.34 0 0 1 -2.428,2.38 q -0.191,0.074 -0.334,0.122 c 0.014,-0.469 0.014,-1.003 0.014,-1.605 v -0.893 c 0,-1.201 0,-2.208 -0.078,-3.026 -0.082,-0.857 -0.259,-1.66 -0.712,-2.4 A 5.36,5.36 0 0 0 14.364,3.867 C 13.626,3.415 12.822,3.237 11.964,3.156 11.147,3.078 10.14,3.078 8.938,3.078 H 6.483 c -0.816,0 -1.542,0 -2.18,0.024 0.03,-0.103 0.07,-0.22 0.118,-0.36 Q 4.541,2.39 4.736,2.072 A 4.34,4.34 0 0 1 6.167,0.639 C 6.735,0.292 7.372,0.141 8.125,0.069 8.859,0 9.775,0 10.927,0 Z M 6.5546875,4.578125 c -2.524,0 -3.7858906,3.594e-4 -4.7128906,0.5683594 A 3.86,3.86 0 0 0 0.5683594,6.4199219 C 3.594e-4,7.3459219 0,8.610812 0,11.132812 v 0.769532 c 0,1.797 -3.13e-5,2.695297 0.2929688,3.404297 a 3.86,3.86 0 0 0 2.0878906,2.085937 c 0.449,0.186 0.9729062,0.25525 1.7539062,0.28125 0.833,0.026 1.2493594,0.03756 1.5683594,0.226563 0.319,0.189 0.5199219,0.528078 0.9199219,1.205078 l 0.25,0.421875 a 0.98,0.98 0 0 0 1.6757811,0 l 0.25,-0.421875 c 0.4,-0.677 0.599922,-1.016078 0.919922,-1.205078 0.32,-0.189 0.736359,-0.201516 1.568359,-0.228516 0.781,-0.025 1.30686,-0.0933 1.75586,-0.279297 a 3.86,3.86 0 0 0 0.755859,-0.429687 h -1.367187 c -0.375,0 -0.718911,-0.158627 -0.935547,-0.402344 -0.216633,-0.243716 -0.314453,-0.549045 -0.314453,-0.847656 0,-0.298611 0.09782,-0.603941 0.314453,-0.847657 0.216636,-0.243716 0.560547,-0.402343 0.935547,-0.402343 h 1.75 v -1.75 c 0,-0.681155 0.560222,-1.244619 1.240234,-1.25 v -0.330079 c 0,-2.524 -3.59e-4,-3.7858901 -0.568359,-4.7128901 A 3.86,3.86 0 0 0 13.580078,5.1464844 c -0.927,-0.568 -2.189891,-0.5683594 -4.71289,-0.5683594 z m -2.2167969,5.783203 a 0.964,0.964 0 0 1 0,1.927734 0.964,0.964 0 0 1 0,-1.927734 z m 3.3730469,0 a 0.964,0.964 0 0 1 0.9648435,0.962891 h -0.002 a 0.964,0.964 0 1 1 -1.9277342,0 0.964,0.964 0 0 1 0.9648437,-0.962891 z m 3.3730465,0 a 0.964,0.964 0 0 1 0,1.927734 0.964,0.964 0 0 1 0,-1.927734 z"
     style="fill:#4e5058;fill-opacity:1" /></svg>
