<?xml version="1.0" encoding="UTF-8" standalone="no"?>
<svg
   width="72"
   height="72"
   viewBox="0 0 24 24"
   version="1.1"
   id="svg1"
   xml:space="preserve"
   xmlns="http://www.w3.org/2000/svg"
   xmlns:svg="http://www.w3.org/2000/svg"><defs
     id="defs1" /><path
     fill="#4e5058"
     fill-rule="evenodd"
     d="m 17.20388,4.0346761 c 1.065822,-1.9510683 1.598734,-2.926414 2.442843,-2.926414 0.84411,0 1.377021,0.9753457 2.442842,2.926414 l 0.132954,0.2427997 c 0.885749,1.6211776 1.328806,2.4317663 0.928485,3.0244386 -0.400323,0.5926727 -1.390902,0.5926727 -3.371328,0.5926727 H 19.51377 c -1.980426,0 -2.971004,0 -3.371327,-0.5926727 -0.400323,-0.5926723 0.04274,-1.403261 0.928485,-3.0244386 z m 2.442843,-1.3240873 a 0.27394308,0.28276354 0 0 1 0.273943,0.2827636 v 1.8850901 a 0.27394339,0.28276386 0 0 1 -0.547886,0 V 2.9933524 a 0.27394308,0.28276354 0 0 1 0.273943,-0.2827636 m 0,3.6759261 a 0.36525753,0.37701814 0 1 0 0,-0.7540362 0.36525753,0.37701814 0 0 0 0,0.7540362"
     clip-rule="evenodd"
     id="path1"
     style="stroke-width:0.371091" /></svg>
